<?xml version="1.0" encoding="UTF-8" standalone="no"?>
<!DOCTYPE svg PUBLIC "-//W3C//DTD SVG 1.1//EN" "http://www.w3.org/Graphics/SVG/1.1/DTD/svg11.dtd">
<svg width="100%" height="100%" viewBox="0 0 1425 1425" version="1.1" xmlns="http://www.w3.org/2000/svg" xmlns:xlink="http://www.w3.org/1999/xlink" xml:space="preserve" xmlns:serif="http://www.serif.com/" style="fill-rule:evenodd;clip-rule:evenodd;stroke-linejoin:round;stroke-miterlimit:2;">
    <g transform="matrix(1422.85,0,0,1422.85,-4.98765,1269.38)">
        <path d="M0.46,-0.217L0.25,-0.217L0.25,-0.13L0.191,-0.13L0.191,-0.51C0.26,-0.509 0.294,-0.501 0.294,-0.485C0.294,-0.477 0.279,-0.468 0.25,-0.458L0.25,-0.242L0.46,-0.242L0.46,-0.606C0.447,-0.604 0.412,-0.599 0.356,-0.592C0.255,-0.579 0.165,-0.569 0.087,-0.561L0.077,-0.587C0.22,-0.604 0.348,-0.623 0.46,-0.644L0.46,-0.819C0.533,-0.818 0.569,-0.811 0.569,-0.797C0.569,-0.788 0.553,-0.778 0.52,-0.768L0.52,-0.656C0.623,-0.677 0.717,-0.702 0.801,-0.73C0.854,-0.703 0.88,-0.684 0.88,-0.672C0.88,-0.666 0.872,-0.663 0.856,-0.663C0.847,-0.663 0.834,-0.664 0.819,-0.666C0.707,-0.643 0.607,-0.626 0.52,-0.614L0.52,-0.242L0.741,-0.242L0.741,-0.528C0.81,-0.525 0.844,-0.516 0.844,-0.499C0.844,-0.49 0.83,-0.481 0.8,-0.472L0.8,-0.151L0.741,-0.151L0.741,-0.217L0.52,-0.217L0.52,-0.048C0.52,-0.031 0.525,-0.02 0.535,-0.016C0.547,-0.012 0.591,-0.009 0.668,-0.009C0.71,-0.009 0.752,-0.011 0.793,-0.014C0.82,-0.017 0.837,-0.029 0.844,-0.051C0.854,-0.082 0.86,-0.125 0.864,-0.182L0.891,-0.173L0.891,-0.147C0.891,-0.092 0.894,-0.056 0.899,-0.04C0.904,-0.026 0.916,-0.019 0.934,-0.019C0.932,0.01 0.918,0.028 0.893,0.034C0.868,0.041 0.791,0.044 0.66,0.044C0.561,0.044 0.502,0.039 0.486,0.028C0.469,0.017 0.46,-0.007 0.46,-0.044L0.46,-0.217Z" style="fill:rgb(124,107,73);fill-rule:nonzero;"/>
    </g>
</svg>
