<svg id="svg" version="1.1" xmlns="http://www.w3.org/2000/svg" xmlns:xlink="http://www.w3.org/1999/xlink" width="400" height="400" viewBox="0, 0, 400,400"><g id="svgg"><path id="path0" d="M210.054 18.144 C 207.982 19.631,204.757 20.947,201.660 21.570 L 199.609 21.983 199.609 39.898 C 199.609 49.751,199.741 57.804,199.902 57.795 C 200.063 57.785,201.689 57.470,203.516 57.095 L 206.836 56.413 207.031 42.956 L 207.227 29.500 210.169 28.897 C 215.925 27.716,220.361 24.593,221.648 20.814 C 222.579 18.082,222.619 18.125,218.652 17.614 C 211.622 16.709,212.096 16.680,210.054 18.144 M330.273 55.885 C 302.215 62.493,254.067 71.065,208.984 77.479 L 199.805 78.785 199.706 165.955 L 199.608 253.125 203.319 253.125 L 207.031 253.125 207.031 169.758 L 207.031 86.390 208.105 86.167 C 208.696 86.045,211.465 85.671,214.258 85.336 C 217.051 85.001,221.533 84.376,224.219 83.946 C 226.904 83.516,230.420 83.001,232.031 82.802 C 235.407 82.384,247.027 80.576,257.227 78.881 C 261.094 78.238,264.873 77.626,265.625 77.522 C 268.056 77.183,291.778 72.884,301.367 71.044 C 313.905 68.639,328.250 65.658,337.199 63.599 L 342.563 62.364 346.574 63.602 C 354.031 65.901,359.892 66.118,363.849 64.240 C 365.701 63.361,365.768 63.491,361.390 59.451 L 357.545 55.903 355.738 56.818 C 352.115 58.652,346.670 58.462,339.292 56.243 C 334.846 54.906,334.492 54.892,330.273 55.885 M167.969 82.658 C 167.346 82.812,158.248 83.771,142.578 85.333 C 104.561 89.123,58.527 92.153,29.102 92.801 C 23.301 92.929,18.358 93.093,18.118 93.165 C 17.806 93.258,17.861 94.332,18.313 96.941 L 18.945 100.586 21.094 100.716 C 24.699 100.934,52.155 100.019,65.820 99.226 C 72.910 98.814,80.996 98.373,83.789 98.246 C 90.258 97.952,98.541 97.370,106.250 96.669 C 109.580 96.367,115.029 95.933,118.359 95.706 C 129.026 94.979,160.045 92.036,168.652 90.934 L 171.875 90.521 171.875 86.471 L 171.875 82.422 170.215 82.467 C 169.302 82.492,168.291 82.578,167.969 82.658 M341.602 135.781 C 340.265 136.869,336.696 138.375,333.417 139.237 L 330.273 140.063 330.175 216.867 L 330.076 293.671 328.690 294.888 C 325.689 297.522,315.046 301.563,311.106 301.563 C 310.163 301.563,310.156 301.591,310.156 305.469 L 310.156 309.375 312.207 309.375 C 322.230 309.373,333.874 305.783,337.082 301.704 L 337.891 300.676 337.891 223.995 L 337.891 147.313 339.746 147.063 C 345.703 146.257,350.902 143.048,352.704 139.063 C 353.877 136.468,353.904 136.494,349.512 135.985 C 347.310 135.730,344.805 135.437,343.945 135.334 C 342.858 135.203,342.145 135.339,341.602 135.781 M83.396 135.941 C 82.877 136.782,78.376 138.661,75.293 139.325 L 72.266 139.977 72.266 196.551 L 72.266 253.125 76.172 253.125 L 80.078 253.125 80.078 200.195 C 80.078 171.084,80.210 147.264,80.371 147.263 C 85.586 147.210,92.178 143.713,94.049 140.007 C 95.699 136.738,95.876 136.931,90.725 136.386 C 88.199 136.118,85.582 135.805,84.908 135.688 C 84.169 135.561,83.569 135.661,83.396 135.941 M72.266 286.779 L 72.266 307.543 70.786 308.950 C 68.103 311.503,61.276 314.354,55.693 315.255 L 52.734 315.732 52.734 319.631 L 52.734 323.530 57.715 323.333 C 65.399 323.029,72.433 320.923,77.202 317.498 C 80.223 315.328,80.078 316.526,80.078 293.769 L 80.078 273.438 125.977 273.438 L 171.875 273.438 171.875 269.727 L 171.875 266.016 122.070 266.016 L 72.266 266.016 72.266 286.779 M199.698 307.910 C 199.802 348.071,199.838 349.886,200.553 351.758 C 201.942 355.390,203.950 357.767,206.967 359.350 C 208.164 359.978,208.285 359.788,207.717 358.177 C 207.360 357.167,207.214 346.531,207.125 315.137 L 207.008 273.438 254.676 273.438 L 302.344 273.438 302.344 269.727 L 302.344 266.016 250.966 266.016 L 199.589 266.016 199.698 307.910 M372.200 302.637 C 371.290 306.442,371.289 306.469,371.404 330.273 C 371.548 359.916,371.042 356.584,375.664 358.298 L 379.405 359.686 379.160 352.597 C 379.025 348.698,378.799 335.005,378.658 322.168 L 378.400 298.828 375.756 298.828 L 373.111 298.828 372.200 302.637 M386.204 370.119 C 385.236 380.486,375.838 383.828,341.602 385.978 C 331.287 386.626,218.808 386.938,211.328 386.339 C 200.935 385.508,193.998 384.022,188.338 381.415 L 185.466 380.091 186.143 381.159 C 189.891 387.069,200.196 391.757,213.086 393.416 C 218.090 394.060,313.894 394.335,336.719 393.770 C 379.906 392.702,392.458 389.279,393.600 378.259 C 394.058 373.840,392.275 370.608,388.238 368.542 L 386.437 367.620 386.204 370.119 " stroke="none" fill="#fafafa" fill-rule="evenodd"></path><path id="path1" d="M180.078 42.088 L 180.078 71.003 173.730 72.192 C 166.016 73.638,154.604 75.671,152.734 75.933 C 151.982 76.038,148.203 76.650,144.336 77.292 C 133.422 79.106,122.658 80.812,120.508 81.067 C 119.434 81.195,115.215 81.803,111.133 82.418 C 101.205 83.914,87.255 85.820,81.250 86.502 C 78.564 86.806,73.379 87.419,69.727 87.863 C 57.758 89.318,41.717 90.988,35.547 91.422 C 27.475 91.989,18.950 92.857,20.898 92.914 C 23.847 92.999,44.344 92.192,59.180 91.407 C 81.151 90.245,86.768 89.895,96.680 89.067 C 101.621 88.654,107.334 88.207,109.375 88.074 C 111.416 87.940,118.623 87.322,125.391 86.701 C 132.158 86.080,139.893 85.383,142.578 85.151 C 145.264 84.920,150.361 84.393,153.906 83.981 C 157.451 83.569,162.285 83.047,164.648 82.820 C 167.012 82.593,169.692 82.303,170.605 82.175 L 172.266 81.943 172.266 86.301 L 172.266 90.660 173.535 90.463 C 174.233 90.355,175.992 90.157,177.442 90.024 L 180.080 89.781 179.981 175.457 L 179.883 261.133 129.980 261.232 L 80.078 261.331 80.078 257.228 L 80.078 253.125 76.172 253.125 L 72.266 253.125 72.266 196.376 L 72.266 139.626 75.038 139.189 C 77.604 138.786,83.934 136.148,83.465 135.678 C 83.362 135.575,80.668 135.247,77.478 134.949 C 74.289 134.652,67.991 133.961,63.483 133.415 C 58.974 132.869,54.712 132.422,54.010 132.422 L 52.734 132.422 52.734 224.014 L 52.734 315.605 54.004 315.379 C 61.142 314.106,67.733 311.464,70.618 308.719 L 72.266 307.152 72.266 286.387 L 72.266 265.622 122.168 265.721 L 172.070 265.820 172.182 269.629 L 172.294 273.438 176.174 273.438 L 180.054 273.438 180.176 319.434 C 180.317 372.388,180.140 369.663,183.981 377.835 C 186.184 382.523,198.778 385.634,218.359 386.329 C 238.043 387.027,330.503 386.464,345.117 385.557 C 375.932 383.645,385.938 379.637,385.938 369.205 C 385.938 367.061,385.662 366.856,381.152 365.635 L 379.297 365.133 379.297 362.489 L 379.297 359.845 376.270 358.761 C 374.604 358.165,372.875 357.547,372.427 357.388 C 371.530 357.070,371.135 347.096,371.067 323.047 C 371.032 310.806,370.813 309.984,369.360 316.644 C 363.213 344.806,359.065 359.923,356.389 363.919 C 353.673 367.974,350.688 368.764,333.594 369.955 C 324.714 370.574,236.877 370.907,229.456 370.350 C 218.730 369.545,213.352 367.668,210.145 363.612 C 209.292 362.532,208.589 361.357,208.582 361.000 C 208.575 360.622,207.575 359.782,206.182 358.984 C 202.216 356.713,200.537 353.828,199.591 347.656 C 199.347 346.060,199.241 330.397,199.308 305.469 L 199.414 265.820 250.879 265.721 L 302.344 265.622 302.344 269.530 L 302.344 273.438 306.250 273.438 L 310.156 273.438 310.156 287.361 L 310.156 301.285 312.628 301.054 C 317.500 300.599,326.530 296.874,328.906 294.338 L 329.883 293.296 330.078 216.488 L 330.273 139.680 332.558 139.223 C 335.230 138.688,339.631 136.982,340.995 135.953 L 341.948 135.235 339.235 134.967 C 337.744 134.820,332.129 134.200,326.758 133.589 C 321.387 132.978,315.454 132.362,313.574 132.220 L 310.156 131.961 310.156 196.646 L 310.156 261.331 258.691 261.232 L 207.227 261.133 207.115 257.129 L 207.004 253.125 203.111 253.125 L 199.219 253.125 199.219 166.006 L 199.219 78.887 200.098 78.558 C 200.581 78.377,202.207 78.105,203.711 77.955 C 210.494 77.277,248.847 71.366,266.211 68.323 C 288.069 64.491,313.540 59.460,329.650 55.792 L 334.885 54.600 338.634 55.799 C 345.736 58.069,351.857 58.370,355.749 56.639 C 357.484 55.867,357.565 55.769,356.887 55.268 C 356.486 54.972,355.072 53.709,353.746 52.462 C 352.420 51.215,348.795 47.910,345.689 45.117 C 342.584 42.324,338.900 38.989,337.502 37.706 C 336.105 36.423,334.417 34.876,333.752 34.270 L 332.544 33.168 329.455 34.185 C 327.757 34.745,325.225 35.609,323.828 36.107 C 319.306 37.717,306.281 41.761,298.633 43.929 C 295.840 44.721,292.324 45.730,290.820 46.171 C 289.316 46.613,286.504 47.379,284.570 47.874 C 282.637 48.368,278.682 49.398,275.781 50.161 C 261.745 53.856,233.986 60.419,219.486 63.471 C 217.040 63.986,213.384 64.762,211.361 65.194 C 206.770 66.176,207.031 66.423,207.031 61.110 C 207.031 58.652,206.987 56.641,206.933 56.641 C 206.880 56.641,205.605 56.901,204.101 57.220 C 202.598 57.538,200.882 57.802,200.289 57.806 L 199.211 57.813 199.313 39.751 L 199.414 21.690 202.126 21.198 C 205.945 20.506,213.227 16.858,210.885 16.810 C 210.534 16.803,207.018 16.359,203.072 15.825 C 199.127 15.290,193.350 14.595,190.234 14.280 C 187.119 13.966,183.560 13.588,182.324 13.441 L 180.078 13.174 180.078 42.088 " stroke="none" fill="#445c7b" fill-rule="evenodd"></path><path id="path2" d="M172.266 34.329 L 172.266 63.190 165.918 64.380 C 158.203 65.826,146.791 67.859,144.922 68.120 C 144.170 68.225,140.391 68.839,136.523 69.485 C 128.670 70.795,114.601 73.001,112.500 73.251 C 111.748 73.341,107.705 73.934,103.516 74.569 C 93.612 76.071,79.602 77.990,73.438 78.689 C 70.752 78.994,65.566 79.606,61.914 80.050 C 50.787 81.402,33.730 83.169,27.539 83.611 C 20.922 84.083,10.089 85.091,9.940 85.248 C 9.885 85.305,10.132 87.021,10.487 89.063 L 11.133 92.773 14.063 92.892 C 15.674 92.958,21.035 92.658,25.977 92.227 C 30.918 91.795,36.455 91.338,38.281 91.210 C 42.195 90.936,60.271 89.012,69.727 87.863 C 73.379 87.419,78.564 86.806,81.250 86.502 C 87.255 85.820,101.205 83.914,111.133 82.418 C 115.215 81.803,119.434 81.195,120.508 81.067 C 122.658 80.812,133.422 79.106,144.336 77.292 C 148.203 76.650,151.982 76.038,152.734 75.933 C 154.604 75.671,166.016 73.638,173.730 72.192 L 180.078 71.003 180.078 42.142 C 180.078 19.314,180.180 13.281,180.566 13.281 C 181.690 13.281,193.043 14.571,201.917 15.709 L 211.452 16.930 212.363 15.789 C 212.864 15.162,213.608 13.660,214.016 12.452 L 214.759 10.255 212.751 10.003 C 211.646 9.864,208.281 9.491,205.273 9.174 C 202.266 8.858,196.377 8.161,192.188 7.626 C 183.806 6.557,174.127 5.469,172.992 5.469 C 172.290 5.469,172.266 6.450,172.266 34.329 M319.141 27.213 C 312.619 29.521,306.254 31.540,294.727 34.958 C 276.896 40.245,256.165 45.573,231.055 51.322 C 220.153 53.818,214.657 55.036,212.305 55.479 C 211.016 55.721,209.302 56.088,208.496 56.295 L 207.031 56.671 207.031 61.125 C 207.031 66.421,206.771 66.176,211.361 65.194 C 213.384 64.762,217.040 63.986,219.486 63.471 C 233.986 60.419,261.745 53.856,275.781 50.161 C 278.682 49.398,282.637 48.368,284.570 47.874 C 286.504 47.379,289.316 46.613,290.820 46.171 C 292.324 45.730,295.840 44.721,298.633 43.929 C 306.281 41.761,319.306 37.717,323.828 36.107 C 325.225 35.609,327.757 34.745,329.455 34.185 L 332.544 33.168 333.752 34.270 C 334.417 34.876,336.105 36.423,337.502 37.706 C 338.900 38.989,342.584 42.324,345.689 45.117 C 348.795 47.910,352.456 51.250,353.825 52.539 C 356.175 54.752,357.422 55.722,357.422 55.338 C 357.422 55.244,354.765 52.731,351.519 49.752 C 348.272 46.773,345.144 43.896,344.567 43.359 C 343.991 42.822,340.988 40.098,337.894 37.305 C 334.799 34.512,330.589 30.691,328.536 28.813 C 326.484 26.936,324.629 25.419,324.414 25.443 C 324.199 25.466,321.826 26.262,319.141 27.213 M176.367 90.107 C 175.508 90.180,174.234 90.334,173.536 90.450 L 172.267 90.660 172.169 171.990 L 172.070 253.320 126.074 253.420 L 80.078 253.519 80.078 257.425 L 80.078 261.331 129.980 261.232 L 179.883 261.133 179.981 175.488 L 180.080 89.844 179.005 89.909 C 178.413 89.946,177.227 90.035,176.367 90.107 M302.344 188.832 L 302.344 253.516 254.673 253.516 L 207.003 253.516 207.115 257.324 L 207.227 261.133 258.691 261.232 L 310.156 261.331 310.156 196.646 L 310.156 131.961 313.574 132.220 C 315.454 132.362,321.387 132.978,326.758 133.589 C 342.807 135.415,341.716 135.366,342.860 134.312 C 343.814 133.435,345.691 129.960,345.699 129.058 C 345.703 128.665,340.057 127.893,331.641 127.135 C 330.244 127.009,324.619 126.403,319.141 125.787 C 313.662 125.172,307.642 124.551,305.762 124.408 L 302.344 124.149 302.344 188.832 M44.922 220.117 L 44.922 315.625 48.828 315.625 L 52.734 315.625 52.734 224.023 L 52.734 132.422 54.010 132.422 C 54.712 132.422,58.974 132.869,63.483 133.415 C 78.755 135.266,83.269 135.589,84.313 134.907 C 85.121 134.380,87.817 129.429,87.448 129.150 C 87.306 129.042,74.416 127.591,69.531 127.132 C 68.135 127.001,62.598 126.380,57.227 125.752 C 51.855 125.125,46.890 124.610,46.191 124.610 L 44.922 124.609 44.922 220.117 M172.364 315.527 C 172.502 362.183,172.448 361.154,175.095 367.578 C 176.368 370.667,178.877 374.510,180.730 376.209 C 182.327 377.672,185.037 379.594,184.532 378.906 C 183.547 377.563,181.652 372.220,180.999 368.945 C 180.354 365.707,180.289 361.806,180.176 319.434 L 180.054 273.438 176.146 273.438 L 172.239 273.438 172.364 315.527 M302.344 287.500 L 302.344 301.563 304.785 301.558 C 306.128 301.556,307.886 301.445,308.691 301.312 L 310.156 301.070 310.156 287.254 L 310.156 273.438 306.250 273.438 L 302.344 273.438 302.344 287.500 M364.520 294.434 C 364.089 296.313,363.540 298.994,363.300 300.391 C 363.060 301.787,362.351 305.215,361.725 308.008 C 361.098 310.801,359.936 315.986,359.143 319.531 C 354.601 339.818,350.699 353.237,348.419 356.413 C 345.730 360.157,342.469 360.983,325.781 362.141 C 305.227 363.569,219.636 362.953,212.324 361.325 C 208.167 360.400,208.594 360.426,208.594 361.098 C 208.594 362.300,211.740 365.599,214.198 366.973 C 220.707 370.613,224.816 370.834,281.410 370.582 C 347.056 370.291,352.442 369.812,356.389 363.919 C 358.715 360.446,362.574 347.051,367.151 326.563 C 367.799 323.662,368.865 318.916,369.519 316.016 C 370.676 310.891,370.709 310.463,370.706 300.879 L 370.703 291.016 368.004 291.016 L 365.304 291.016 364.520 294.434 M379.297 362.604 L 379.297 365.068 382.422 366.048 L 385.547 367.027 385.547 366.122 C 385.547 364.972,382.743 361.898,380.779 360.897 L 379.297 360.140 379.297 362.604 " stroke="none" fill="#043b6b" fill-rule="evenodd"></path><path id="path3" d="M171.389 33.622 L 171.289 62.665 166.797 63.521 C 146.613 67.367,105.558 73.846,82.813 76.774 C 80.342 77.092,74.189 77.891,69.141 78.549 C 64.092 79.207,58.115 79.892,55.859 80.071 C 53.604 80.250,47.715 80.846,42.773 81.396 C 37.832 81.945,28.213 82.872,21.397 83.455 C 9.323 84.487,9.009 84.535,9.183 85.324 C 9.428 86.434,10.544 93.095,10.546 93.457 C 10.546 93.618,12.023 93.750,13.827 93.750 L 17.107 93.750 17.553 96.387 C 17.797 97.837,18.104 99.621,18.233 100.350 L 18.468 101.678 29.839 101.404 C 44.190 101.059,48.499 100.864,86.523 98.840 C 94.419 98.419,112.178 97.024,131.445 95.311 C 138.535 94.681,145.742 94.062,147.461 93.935 C 149.180 93.809,155.017 93.188,160.433 92.556 C 165.849 91.924,170.551 91.406,170.882 91.406 C 171.423 91.406,171.484 99.660,171.484 172.070 L 171.484 252.734 125.977 252.734 L 80.469 252.734 80.469 200.458 L 80.469 148.182 83.028 147.710 C 88.724 146.661,93.156 143.627,95.090 139.453 C 96.633 136.125,97.210 136.498,89.006 135.520 L 85.238 135.070 86.148 133.730 C 87.134 132.276,88.497 128.992,88.226 128.721 C 87.956 128.451,47.379 123.805,45.409 123.819 L 44.139 123.828 44.238 220.020 L 44.336 316.211 48.131 316.323 L 51.925 316.434 52.037 320.229 L 52.148 324.023 55.942 324.135 C 64.441 324.385,75.599 320.763,79.590 316.459 L 80.469 315.511 80.469 294.670 L 80.469 273.828 125.977 273.828 L 171.484 273.828 171.488 313.184 C 171.493 360.098,171.574 361.389,175.016 369.336 C 176.492 372.744,180.840 377.851,183.730 379.571 C 184.017 379.743,184.788 380.630,185.443 381.542 C 188.595 385.938,196.932 391.137,202.162 391.968 C 203.000 392.101,204.698 392.473,205.934 392.793 C 213.126 394.656,212.939 394.650,263.477 394.818 C 310.628 394.975,349.426 394.533,358.203 393.738 C 384.029 391.398,392.962 387.890,394.159 379.618 C 395.026 373.622,393.059 369.710,388.111 367.589 C 386.795 367.025,386.390 366.620,386.202 365.678 C 385.918 364.258,383.694 361.689,381.701 360.478 C 380.916 360.002,380.167 359.458,380.038 359.270 C 379.908 359.082,379.687 348.438,379.547 335.616 C 379.406 322.795,379.180 309.185,379.045 305.371 L 378.798 298.438 375.576 298.438 L 372.354 298.438 372.040 300.293 L 371.725 302.148 371.448 300.000 C 371.296 298.818,371.154 296.226,371.132 294.238 L 371.094 290.625 367.869 290.625 L 364.645 290.625 363.347 296.777 C 359.685 314.138,357.566 323.601,355.821 330.381 C 355.198 332.804,354.690 335.001,354.694 335.264 C 354.706 336.148,351.449 347.298,349.844 351.868 C 346.373 361.750,341.752 362.286,262.305 362.014 C 215.378 361.853,217.073 361.914,210.619 360.176 C 207.902 359.444,208.036 361.676,207.909 315.332 L 207.795 273.828 254.679 273.828 L 301.563 273.828 301.563 287.891 L 301.563 301.953 305.469 301.953 L 309.375 301.953 309.375 305.899 L 309.375 309.844 315.918 309.682 C 325.031 309.455,335.285 305.882,337.789 302.061 C 338.440 301.067,338.477 296.905,338.477 224.627 L 338.477 148.242 341.211 147.585 C 347.691 146.027,352.293 142.709,353.692 138.586 C 354.642 135.787,354.898 135.966,348.868 135.209 L 343.791 134.570 344.515 133.613 C 345.413 132.425,346.733 128.634,346.373 128.274 C 346.227 128.128,342.281 127.588,337.605 127.074 C 332.928 126.559,324.443 125.613,318.750 124.970 C 313.057 124.327,306.860 123.694,304.980 123.562 L 301.563 123.321 301.563 188.028 L 301.563 252.734 254.688 252.734 L 207.813 252.734 207.813 169.758 L 207.813 86.781 210.449 86.550 C 213.084 86.319,225.257 84.576,239.258 82.425 C 243.340 81.798,247.471 81.189,248.438 81.072 C 251.240 80.732,269.863 77.545,285.352 74.754 C 303.438 71.495,323.400 67.497,336.914 64.427 C 343.043 63.034,342.788 63.038,346.242 64.287 C 352.553 66.570,361.483 66.759,364.577 64.674 C 366.562 63.337,366.361 62.868,362.227 59.184 C 360.121 57.308,358.287 55.481,358.151 55.124 C 358.015 54.766,356.521 53.247,354.833 51.749 C 353.144 50.250,350.610 47.969,349.201 46.680 C 347.793 45.391,344.717 42.578,342.367 40.430 C 340.017 38.281,336.950 35.462,335.551 34.165 C 334.152 32.867,331.206 30.167,329.004 28.165 L 325.000 24.524 322.363 25.405 C 320.913 25.890,318.320 26.763,316.602 27.346 C 314.883 27.929,311.455 29.043,308.984 29.821 C 292.440 35.037,284.201 37.381,263.477 42.769 C 250.196 46.221,228.555 51.290,211.230 55.007 L 207.813 55.740 207.813 42.916 L 207.813 30.093 208.691 29.913 C 209.175 29.814,210.243 29.624,211.064 29.492 C 216.282 28.650,221.662 24.326,222.646 20.183 C 223.318 17.352,223.463 17.452,217.751 16.794 C 215.293 16.511,213.281 16.214,213.281 16.134 C 213.281 16.054,213.526 15.599,213.824 15.123 C 214.766 13.621,215.474 10.155,214.909 9.806 C 214.642 9.641,210.959 9.113,206.724 8.633 C 202.489 8.152,195.684 7.320,191.602 6.784 C 187.520 6.247,182.334 5.646,180.078 5.448 C 177.822 5.251,174.967 4.974,173.733 4.834 L 171.489 4.579 171.389 33.622 M179.145 6.062 C 182.129 6.388,187.998 7.092,192.188 7.626 C 196.377 8.161,202.266 8.858,205.273 9.174 C 208.281 9.491,211.648 9.864,212.755 10.003 L 214.767 10.256 214.040 12.370 C 213.640 13.532,212.956 14.984,212.520 15.596 L 211.728 16.710 213.383 16.933 C 214.294 17.056,216.732 17.367,218.801 17.624 L 222.564 18.092 221.809 20.327 C 220.347 24.655,216.304 27.638,210.202 28.890 L 207.227 29.500 207.124 43.114 C 207.040 54.269,207.114 56.692,207.537 56.530 C 207.821 56.421,209.537 56.041,211.351 55.686 C 213.165 55.331,217.021 54.506,219.922 53.852 C 244.667 48.276,258.242 44.970,277.539 39.823 C 291.040 36.221,308.113 31.061,319.487 27.143 L 324.717 25.341 325.933 26.451 C 326.601 27.061,328.292 28.610,329.690 29.893 C 331.088 31.177,334.772 34.512,337.877 37.305 C 348.386 46.757,353.344 51.398,359.911 57.930 C 365.895 63.882,365.862 63.790,362.390 64.831 C 358.309 66.053,353.332 65.664,346.574 63.594 L 342.563 62.364 337.199 63.594 C 320.215 67.489,301.636 71.156,273.633 76.139 C 263.250 77.986,237.050 82.182,232.031 82.801 C 230.420 82.999,226.377 83.593,223.047 84.119 C 219.717 84.645,215.850 85.190,214.453 85.330 C 213.057 85.469,210.815 85.769,209.473 85.996 L 207.031 86.408 207.031 169.962 L 207.031 253.516 254.688 253.516 L 302.344 253.516 302.344 188.832 L 302.344 124.149 305.762 124.408 C 307.642 124.551,313.662 125.172,319.141 125.787 C 324.619 126.403,330.244 127.009,331.641 127.135 C 340.066 127.894,345.702 128.665,345.695 129.058 C 345.677 129.932,344.068 133.036,343.114 134.034 L 342.134 135.060 343.821 135.291 C 344.749 135.418,347.310 135.730,349.512 135.985 C 353.904 136.494,353.877 136.468,352.704 139.063 C 350.902 143.048,345.703 146.257,339.746 147.063 L 337.891 147.313 337.891 223.995 L 337.891 300.676 337.082 301.704 C 333.874 305.783,322.230 309.373,312.207 309.375 L 310.156 309.375 310.156 305.310 L 310.156 301.246 306.250 301.461 L 302.344 301.676 302.344 287.557 L 302.344 273.438 254.677 273.438 L 207.011 273.437 207.130 314.941 C 207.265 362.025,207.133 359.955,210.031 360.791 C 216.722 362.722,215.918 362.696,268.359 362.683 C 337.612 362.665,344.305 362.141,348.419 356.413 C 350.699 353.237,354.601 339.818,359.143 319.531 C 359.936 315.986,361.098 310.801,361.725 308.008 C 362.351 305.215,363.060 301.787,363.300 300.391 C 363.540 298.994,364.089 296.313,364.520 294.434 L 365.304 291.016 368.004 291.016 L 370.703 291.016 370.749 300.488 C 370.779 306.641,370.904 309.312,371.107 308.109 C 371.278 307.091,371.799 304.586,372.265 302.543 L 373.111 298.828 375.756 298.828 L 378.400 298.828 378.658 321.777 C 378.800 334.399,379.028 348.208,379.164 352.463 L 379.412 360.199 380.837 360.926 C 382.828 361.942,385.547 364.984,385.547 366.197 C 385.547 366.998,385.958 367.384,387.807 368.317 C 393.443 371.162,395.196 376.247,392.604 382.227 C 389.783 388.737,377.406 392.025,350.391 393.443 C 337.036 394.143,219.924 394.145,213.757 393.445 C 201.067 392.004,190.712 387.522,186.487 381.642 C 185.727 380.584,183.967 378.824,182.576 377.731 C 177.901 374.057,174.600 368.220,173.188 361.128 C 172.547 357.911,172.478 354.098,172.364 315.527 L 172.239 273.438 126.159 273.438 L 80.078 273.438 80.078 293.769 C 80.078 316.526,80.223 315.328,77.202 317.498 C 72.379 320.962,65.637 322.997,57.910 323.322 L 52.734 323.539 52.734 319.582 L 52.734 315.625 48.828 315.625 L 44.922 315.625 44.922 220.117 L 44.922 124.609 46.191 124.610 C 46.890 124.610,51.855 125.125,57.227 125.752 C 62.598 126.380,68.135 127.001,69.531 127.132 C 74.166 127.567,87.303 129.040,87.438 129.139 C 87.780 129.392,85.315 134.110,84.510 134.744 L 83.598 135.461 84.865 135.680 C 85.562 135.801,88.199 136.118,90.725 136.386 C 95.912 136.934,95.716 136.696,93.922 140.265 C 92.381 143.333,87.727 146.117,82.771 146.935 L 80.078 147.380 80.078 200.449 L 80.078 253.519 126.074 253.420 L 172.070 253.320 172.169 171.918 L 172.267 90.516 170.216 90.762 C 158.504 92.166,129.199 94.972,118.555 95.708 C 115.332 95.931,108.828 96.457,104.102 96.877 C 99.375 97.297,91.816 97.826,87.305 98.053 C 82.793 98.280,73.213 98.808,66.016 99.228 C 51.481 100.075,20.409 101.052,19.470 100.692 C 19.063 100.535,18.715 99.471,18.394 97.398 C 17.659 92.663,17.976 93.015,14.334 92.887 L 11.133 92.773 10.487 89.063 C 10.132 87.021,9.885 85.305,9.940 85.248 C 10.089 85.091,20.922 84.083,27.539 83.611 C 33.730 83.169,50.787 81.402,61.914 80.050 C 65.566 79.606,70.752 78.994,73.438 78.689 C 79.602 77.990,93.612 76.071,103.516 74.569 C 107.705 73.934,111.748 73.341,112.500 73.251 C 114.601 73.001,128.670 70.795,136.523 69.485 C 140.391 68.839,144.170 68.225,144.922 68.120 C 146.791 67.859,158.203 65.826,165.918 64.380 L 172.266 63.190 172.266 34.329 C 172.266 6.450,172.290 5.469,172.992 5.469 C 173.392 5.469,176.161 5.735,179.145 6.062 " stroke="none" fill="#040404" fill-rule="evenodd"></path><path id="path4" d="M199.398 21.973 C 199.295 22.241,199.258 30.459,199.316 40.234 L 199.422 58.008 199.516 39.969 L 199.609 21.929 200.488 21.760 L 201.367 21.591 200.476 21.538 C 199.986 21.508,199.501 21.704,199.398 21.973 M333.626 54.828 C 333.716 54.906,334.580 55.074,335.547 55.202 C 336.721 55.357,337.045 55.319,336.523 55.088 C 335.777 54.758,333.287 54.535,333.626 54.828 M348.535 58.092 C 349.126 58.182,350.093 58.182,350.684 58.092 C 351.274 58.003,350.791 57.930,349.609 57.930 C 348.428 57.930,347.944 58.003,348.535 58.092 M201.270 78.394 C 201.646 78.493,202.261 78.493,202.637 78.394 C 203.013 78.296,202.705 78.216,201.953 78.216 C 201.201 78.216,200.894 78.296,201.270 78.394 M199.399 79.004 C 199.297 79.272,199.259 118.604,199.314 166.406 L 199.414 253.320 199.609 165.918 C 199.717 117.847,199.755 78.516,199.695 78.516 C 199.634 78.516,199.501 78.735,199.399 79.004 M170.983 82.305 C 171.803 82.464,171.856 82.695,171.974 86.647 L 172.100 90.820 172.183 86.426 L 172.266 82.031 171.191 82.084 C 170.290 82.129,170.256 82.165,170.983 82.305 M163.188 83.089 C 163.674 83.182,164.377 83.179,164.751 83.081 C 165.124 82.983,164.727 82.907,163.867 82.911 C 163.008 82.915,162.702 82.995,163.188 83.089 M159.673 83.479 C 160.158 83.573,160.862 83.569,161.235 83.472 C 161.608 83.374,161.211 83.297,160.352 83.302 C 159.492 83.306,159.187 83.386,159.673 83.479 M140.923 85.433 C 141.408 85.526,142.112 85.522,142.485 85.425 C 142.858 85.327,142.461 85.250,141.602 85.255 C 140.742 85.259,140.437 85.339,140.923 85.433 M136.431 85.827 C 137.025 85.917,137.904 85.915,138.384 85.822 C 138.865 85.729,138.379 85.656,137.305 85.659 C 136.230 85.662,135.837 85.737,136.431 85.827 M132.324 86.213 C 132.808 86.306,133.599 86.306,134.082 86.213 C 134.565 86.120,134.170 86.044,133.203 86.044 C 132.236 86.044,131.841 86.120,132.324 86.213 M127.832 86.597 C 128.208 86.696,128.823 86.696,129.199 86.597 C 129.575 86.499,129.268 86.419,128.516 86.419 C 127.764 86.419,127.456 86.499,127.832 86.597 M109.668 88.166 C 110.151 88.259,110.942 88.259,111.426 88.166 C 111.909 88.073,111.514 87.997,110.547 87.997 C 109.580 87.997,109.185 88.073,109.668 88.166 M104.395 88.561 C 104.985 88.651,105.952 88.651,106.543 88.561 C 107.134 88.472,106.650 88.398,105.469 88.398 C 104.287 88.398,103.804 88.472,104.395 88.561 M99.512 88.948 C 99.995 89.041,100.786 89.041,101.270 88.948 C 101.753 88.854,101.357 88.778,100.391 88.778 C 99.424 88.778,99.028 88.854,99.512 88.948 M89.941 89.722 C 90.317 89.821,90.933 89.821,91.309 89.722 C 91.685 89.624,91.377 89.544,90.625 89.544 C 89.873 89.544,89.565 89.624,89.941 89.722 M78.418 90.510 C 78.901 90.603,79.692 90.603,80.176 90.510 C 80.659 90.417,80.264 90.341,79.297 90.341 C 78.330 90.341,77.935 90.417,78.418 90.510 M70.801 90.910 C 71.606 90.994,72.925 90.994,73.730 90.910 C 74.536 90.825,73.877 90.756,72.266 90.756 C 70.654 90.756,69.995 90.825,70.801 90.910 M63.770 91.300 C 64.575 91.384,65.894 91.384,66.699 91.300 C 67.505 91.216,66.846 91.147,65.234 91.147 C 63.623 91.147,62.964 91.216,63.770 91.300 M56.348 91.686 C 56.938 91.776,57.905 91.776,58.496 91.686 C 59.087 91.597,58.604 91.523,57.422 91.523 C 56.240 91.523,55.757 91.597,56.348 91.686 M48.931 92.077 C 49.525 92.167,50.404 92.165,50.884 92.072 C 51.365 91.979,50.879 91.906,49.805 91.909 C 48.730 91.912,48.337 91.987,48.931 92.077 M40.144 92.471 C 40.846 92.558,41.900 92.556,42.487 92.467 C 43.074 92.377,42.500 92.306,41.211 92.309 C 39.922 92.311,39.442 92.384,40.144 92.471 M27.832 92.863 C 28.638 92.947,29.956 92.947,30.762 92.863 C 31.567 92.778,30.908 92.709,29.297 92.709 C 27.686 92.709,27.026 92.778,27.832 92.863 M122.154 265.917 L 171.847 266.019 171.981 269.729 L 172.115 273.439 172.093 269.630 L 172.070 265.820 122.266 265.818 L 72.461 265.816 122.154 265.917 M199.399 266.113 C 199.296 266.382,199.259 284.619,199.315 306.641 L 199.418 346.680 199.514 306.349 L 199.609 266.019 251.074 265.918 L 302.539 265.817 251.062 265.721 C 210.169 265.645,199.547 265.725,199.399 266.113 M328.739 294.494 L 327.596 295.898 328.915 294.641 C 329.640 293.950,330.154 293.318,330.058 293.237 C 329.962 293.156,329.368 293.722,328.739 294.494 M320.508 299.037 C 319.531 299.508,319.498 299.562,320.313 299.363 C 321.419 299.092,322.663 298.458,322.070 298.467 C 321.855 298.470,321.152 298.727,320.508 299.037 M310.645 301.441 C 311.021 301.539,311.636 301.539,312.012 301.441 C 312.388 301.343,312.080 301.263,311.328 301.263 C 310.576 301.263,310.269 301.343,310.645 301.441 M70.117 309.238 C 68.941 310.289,68.853 310.435,69.761 309.828 C 70.841 309.106,72.199 307.789,71.825 307.827 C 71.745 307.835,70.977 308.470,70.117 309.238 M370.810 311.328 C 370.810 312.295,370.886 312.690,370.979 312.207 C 371.072 311.724,371.072 310.933,370.979 310.449 C 370.886 309.966,370.810 310.361,370.810 311.328 M58.398 314.453 C 57.906 314.665,57.834 314.789,58.203 314.789 C 58.525 314.789,59.141 314.638,59.570 314.453 C 60.063 314.242,60.135 314.117,59.766 314.117 C 59.443 314.117,58.828 314.268,58.398 314.453 M371.258 333.398 C 371.258 337.695,371.315 339.506,371.385 337.423 C 371.455 335.340,371.455 331.824,371.385 329.611 C 371.316 327.397,371.258 329.102,371.258 333.398 M371.608 356.219 C 371.647 356.740,371.943 357.236,372.266 357.323 C 372.653 357.428,372.701 357.372,372.408 357.159 C 372.165 356.981,371.869 356.484,371.750 356.055 C 371.581 355.439,371.551 355.474,371.608 356.219 M386.049 369.336 C 386.052 370.410,386.128 370.803,386.218 370.209 C 386.308 369.616,386.305 368.737,386.212 368.256 C 386.120 367.776,386.046 368.262,386.049 369.336 M382.791 377.246 L 381.445 378.711 382.910 377.365 C 384.274 376.112,384.555 375.781,384.256 375.781 C 384.191 375.781,383.532 376.440,382.791 377.246 M361.035 384.254 C 361.411 384.352,362.026 384.352,362.402 384.254 C 362.778 384.155,362.471 384.075,361.719 384.075 C 360.967 384.075,360.659 384.155,361.035 384.254 M348.926 385.426 C 349.302 385.524,349.917 385.524,350.293 385.426 C 350.669 385.327,350.361 385.247,349.609 385.247 C 348.857 385.247,348.550 385.327,348.926 385.426 M342.090 385.823 C 342.573 385.916,343.364 385.916,343.848 385.823 C 344.331 385.729,343.936 385.653,342.969 385.653 C 342.002 385.653,341.606 385.729,342.090 385.823 M209.277 386.213 C 209.761 386.306,210.552 386.306,211.035 386.213 C 211.519 386.120,211.123 386.044,210.156 386.044 C 209.189 386.044,208.794 386.120,209.277 386.213 M329.411 386.228 C 330.870 386.303,333.155 386.302,334.489 386.226 C 335.823 386.150,334.629 386.089,331.836 386.089 C 329.043 386.090,327.952 386.152,329.411 386.228 M216.522 386.619 C 218.197 386.692,220.833 386.692,222.381 386.618 C 223.929 386.544,222.559 386.484,219.336 386.484 C 216.113 386.485,214.847 386.545,216.522 386.619 M294.629 386.621 C 299.731 386.682,308.081 386.682,313.184 386.621 C 318.286 386.559,314.111 386.509,303.906 386.509 C 293.701 386.509,289.526 386.559,294.629 386.621 " stroke="none" fill="#898989" fill-rule="evenodd"></path></g></svg>