<svg height="1024pt" preserveAspectRatio="xMidYMid meet" viewBox="0 0 1024 1024" width="1024pt" xmlns="http://www.w3.org/2000/svg"><path d="m4508 9268-3-743-105-21c-140-28-459-84-760-133-1213-198-2150-316-3117-393-84-6-157-14-162-17-4-3-1-50 7-103l15-98h156c266 0 764 21 1571 65 58 3 186 12 285 20s299 24 445 35c455 34 1431 128 1628 156l42 6v-2191-2191h-1280-1280l2 1452 3 1452 69 12c86 17 190 65 238 111 32 31 88 137 77 147-4 3-396 49-534 62-75 7-467 52-517 59l-38 5v-2451-2452l138 6c104 4 159 11 228 30 121 34 237 91 290 142l44 42v531 532l1278-2 1277-3 6-1190c4-854 9-1206 18-1248 18-91 67-215 112-283 101-155 264-254 511-309 170-38 229-44 523-56 315-13 2633-5 3045 11 723 28 1060 95 1189 235 54 60 71 106 71 196 0 135-75 209-285 279l-80 27-7 349c-4 192-10 573-14 847l-6 497h-69c-56 0-69-3-73-18-3-9-26-114-50-232-166-798-298-1300-372-1413-30-45-94-93-143-107-52-15-269-38-476-50-268-16-2345-25-2580-11-416 24-548 94-606 321-12 45-14 237-14 1105v1050l1318 3 1317 2v-460-460h99c171 0 336 39 479 115 38 20 82 50 98 66l29 30 5 1966 5 1966 68 14c103 21 204 71 257 129 40 43 81 126 69 138-6 6-128 21-419 51-135 13-324 33-420 44s-196 21-222 24l-48 5v-1654-1654h-1320-1320v2229c0 1397 4 2232 9 2236 6 3 77 14 158 25 353 46 1111 163 1498 231 323 57 868 159 1040 195 319 66 598 125 677 144l88 21 97-30c195-60 358-67 445-19 24 13 41 28 38 33-2 6-38 41-80 79-260 239-719 655-742 674-15 12-51 3-260-67-458-151-879-271-1438-411-434-108-635-155-1020-240-80-17-203-45-275-60-71-16-154-32-182-36l-53-7v455c0 353 3 458 13 465 6 6 39 15 71 22 148 28 265 115 299 222 10 28 16 53 15 55-2 1-82 12-178 24-564 67-674 80-765 90-55 6-110 13-122 15l-23 5z" transform="matrix(.1 0 0 -.1 0 1024)"/></svg>